<svg xmlns="http://www.w3.org/2000/svg" xmlns:xlink="http://www.w3.org/1999/xlink" width="93" zoomAndPan="magnify" viewBox="0 0 69.75 37.5" height="50" preserveAspectRatio="xMidYMid meet" version="1.0"><defs><g/><clipPath id="6ee754a17c"><path d="M 5 7.625 L 29 7.625 L 29 29.828125 L 5 29.828125 Z M 5 7.625 " clip-rule="nonzero"/></clipPath><clipPath id="eec624c20a"><path d="M 4.035156 23 L 10 23 L 10 25 L 4.035156 25 Z M 4.035156 23 " clip-rule="nonzero"/></clipPath></defs><g clip-path="url(#6ee754a17c)"><path fill="#ff3131" d="M 27.441406 25.308594 L 25.277344 22.1875 C 23.917969 20.292969 22.1875 15.550781 22.136719 13.585938 L 22.132812 13.292969 C 22.121094 12.480469 22.105469 11.558594 21.601562 10.78125 C 20.875 9.660156 19.289062 9.285156 18.136719 9.964844 C 17.410156 10.394531 16.96875 11.175781 16.898438 11.988281 C 15.730469 10.941406 14.949219 9.433594 14.257812 8.089844 L 14.019531 7.625 L 13.535156 7.8125 C 11.695312 8.53125 9.613281 9.34375 8.25 11.027344 C 6.75 12.878906 6.347656 15.359375 7.253906 17.203125 L 7.308594 17.316406 L 11.304688 20.578125 L 5.238281 20.578125 L 5.238281 21.730469 L 12.71875 21.730469 L 15.765625 24.21875 L 16.496094 23.324219 L 8.238281 16.585938 C 7.753906 15.507812 7.871094 14.304688 8.285156 13.253906 L 21.875 25.492188 C 23.371094 26.691406 25.3125 27.546875 27.277344 27.890625 C 27.265625 27.992188 27.246094 28.09375 27.203125 28.1875 C 26.910156 28.832031 25.9375 29 25.121094 28.933594 C 23.140625 28.789062 21.222656 27.875 19.867188 26.429688 L 19.695312 26.246094 L 7.859375 26.144531 L 7.851562 27.296875 L 19.199219 27.398438 C 20.738281 28.949219 22.855469 29.925781 25.035156 30.085938 C 25.175781 30.097656 25.3125 30.101562 25.445312 30.101562 C 26.804688 30.101562 27.839844 29.578125 28.253906 28.667969 C 28.855469 27.339844 27.863281 25.917969 27.441406 25.308594 Z M 18.722656 10.960938 C 19.335938 10.597656 20.246094 10.8125 20.632812 11.410156 C 20.957031 11.910156 20.96875 12.589844 20.980469 13.308594 L 20.980469 13.398438 C 20.023438 13.460938 19.050781 13.269531 18.183594 12.855469 L 18.191406 12.851562 C 17.855469 12.222656 18.109375 11.320312 18.722656 10.960938 Z M 8.828125 12.191406 C 8.929688 12.039062 9.035156 11.890625 9.144531 11.753906 C 10.207031 10.441406 11.894531 9.699219 13.46875 9.078125 C 14.230469 10.542969 15.125 12.121094 16.550781 13.207031 C 17.828125 14.175781 19.484375 14.65625 21.082031 14.546875 C 21.195312 15.230469 21.402344 16.039062 21.664062 16.890625 L 19.25 16.890625 L 19.25 18.042969 L 22.046875 18.042969 C 22.246094 18.613281 22.464844 19.179688 22.695312 19.726562 L 21.097656 19.726562 L 21.097656 20.882812 L 23.214844 20.882812 C 23.585938 21.660156 23.972656 22.347656 24.335938 22.851562 L 26.496094 25.964844 C 26.644531 26.183594 26.792969 26.410156 26.921875 26.640625 C 25.335938 26.277344 23.808594 25.566406 22.625 24.613281 Z M 8.828125 12.191406 " fill-opacity="1" fill-rule="nonzero"/></g><g clip-path="url(#eec624c20a)"><path fill="#ff3131" d="M 4.046875 23.457031 L 9.902344 23.457031 L 9.902344 24.613281 L 4.046875 24.613281 Z M 4.046875 23.457031 " fill-opacity="1" fill-rule="nonzero"/></g><g fill="#ed6024" fill-opacity="1"><g transform="translate(26.628845, 17.711155)"><g><path d="M 4.5 0 L 3.359375 0 L 3.109375 -0.4375 L 1.421875 -0.4375 L 1.171875 0 L 0.03125 0 L 1.75 -2.6875 L 2.78125 -2.6875 Z M 2.734375 -1.109375 L 2.265625 -1.921875 L 1.796875 -1.109375 Z M 2.734375 -1.109375 "/></g></g></g><g fill="#ed6024" fill-opacity="1"><g transform="translate(31.166244, 17.711155)"><g><path d="M 2.28125 0 L 1.15625 0 L 1.15625 -2.015625 L 0.109375 -2.015625 L 0.109375 -2.6875 L 3.34375 -2.6875 L 3.34375 -2.015625 L 2.28125 -2.015625 Z M 2.28125 0 "/></g></g></g><g fill="#ed6024" fill-opacity="1"><g transform="translate(34.620281, 17.711155)"><g><path d="M 1.421875 0 L 0.296875 0 L 0.296875 -2.6875 L 1.421875 -2.6875 Z M 1.421875 0 "/></g></g></g><g fill="#ed6024" fill-opacity="1"><g transform="translate(36.345429, 17.711155)"><g><path d="M 2.578125 0 L 1.53125 0 L 0.03125 -2.6875 L 1.171875 -2.6875 L 2.046875 -0.765625 L 2.9375 -2.6875 L 4.078125 -2.6875 Z M 2.578125 0 "/></g></g></g><g fill="#ed6024" fill-opacity="1"><g transform="translate(40.456219, 17.711155)"><g><path d="M 4.5 0 L 3.359375 0 L 3.109375 -0.4375 L 1.421875 -0.4375 L 1.171875 0 L 0.03125 0 L 1.75 -2.6875 L 2.78125 -2.6875 Z M 2.734375 -1.109375 L 2.265625 -1.921875 L 1.796875 -1.109375 Z M 2.734375 -1.109375 "/></g></g></g><g fill="#ed6024" fill-opacity="1"><g transform="translate(44.993618, 17.711155)"><g><path d="M 1.765625 0.0625 C 1.410156 0.0625 1.117188 0.0234375 0.890625 -0.046875 C 0.671875 -0.128906 0.503906 -0.238281 0.390625 -0.375 C 0.273438 -0.507812 0.195312 -0.671875 0.15625 -0.859375 L 1.34375 -0.859375 C 1.4375 -0.722656 1.578125 -0.65625 1.765625 -0.65625 C 1.960938 -0.65625 2.101562 -0.722656 2.1875 -0.859375 C 2.195312 -0.867188 2.203125 -0.878906 2.203125 -0.890625 C 2.203125 -0.921875 2.15625 -0.941406 2.0625 -0.953125 C 1.976562 -0.972656 1.847656 -0.988281 1.671875 -1 C 1.453125 -1.007812 1.21875 -1.035156 0.96875 -1.078125 C 0.425781 -1.160156 0.15625 -1.378906 0.15625 -1.734375 C 0.15625 -1.765625 0.15625 -1.796875 0.15625 -1.828125 C 0.195312 -2.003906 0.273438 -2.160156 0.390625 -2.296875 C 0.503906 -2.429688 0.671875 -2.535156 0.890625 -2.609375 C 1.117188 -2.691406 1.410156 -2.734375 1.765625 -2.734375 C 2.128906 -2.734375 2.421875 -2.691406 2.640625 -2.609375 C 2.867188 -2.535156 3.039062 -2.429688 3.15625 -2.296875 C 3.269531 -2.160156 3.347656 -2.003906 3.390625 -1.828125 L 2.1875 -1.828125 C 2.101562 -1.953125 1.960938 -2.015625 1.765625 -2.015625 C 1.578125 -2.015625 1.4375 -1.953125 1.34375 -1.828125 C 1.34375 -1.816406 1.34375 -1.804688 1.34375 -1.796875 C 1.34375 -1.765625 1.382812 -1.738281 1.46875 -1.71875 C 1.550781 -1.707031 1.675781 -1.695312 1.84375 -1.6875 C 2.007812 -1.6875 2.1875 -1.671875 2.375 -1.640625 C 2.5625 -1.617188 2.738281 -1.582031 2.90625 -1.53125 C 3.070312 -1.476562 3.203125 -1.394531 3.296875 -1.28125 C 3.359375 -1.195312 3.390625 -1.09375 3.390625 -0.96875 C 3.390625 -0.925781 3.390625 -0.890625 3.390625 -0.859375 C 3.347656 -0.671875 3.269531 -0.507812 3.15625 -0.375 C 3.039062 -0.238281 2.867188 -0.128906 2.640625 -0.046875 C 2.421875 0.0234375 2.128906 0.0625 1.765625 0.0625 Z M 1.765625 0.0625 "/></g></g></g><g fill="#ed6024" fill-opacity="1"><g transform="translate(48.544952, 17.711155)"><g><path d="M 1.421875 0 L 0.296875 0 L 0.296875 -2.6875 L 2.125 -2.6875 C 2.5625 -2.6875 2.914062 -2.648438 3.1875 -2.578125 C 3.457031 -2.515625 3.648438 -2.410156 3.765625 -2.265625 C 3.890625 -2.128906 3.953125 -1.953125 3.953125 -1.734375 C 3.953125 -1.503906 3.890625 -1.316406 3.765625 -1.171875 C 3.648438 -1.035156 3.457031 -0.9375 3.1875 -0.875 C 2.914062 -0.8125 2.5625 -0.78125 2.125 -0.78125 L 1.421875 -0.78125 Z M 1.421875 -1.4375 L 2.0625 -1.4375 C 2.25 -1.4375 2.390625 -1.441406 2.484375 -1.453125 C 2.585938 -1.472656 2.664062 -1.492188 2.71875 -1.515625 C 2.769531 -1.546875 2.800781 -1.578125 2.8125 -1.609375 C 2.820312 -1.648438 2.828125 -1.691406 2.828125 -1.734375 C 2.828125 -1.773438 2.820312 -1.8125 2.8125 -1.84375 C 2.800781 -1.875 2.769531 -1.898438 2.71875 -1.921875 C 2.664062 -1.953125 2.585938 -1.972656 2.484375 -1.984375 C 2.390625 -2.003906 2.25 -2.015625 2.0625 -2.015625 L 1.421875 -2.015625 Z M 1.421875 -1.4375 "/></g></g></g><g fill="#ed6024" fill-opacity="1"><g transform="translate(52.659485, 17.711155)"><g><path d="M 2.03125 0.0625 C 1.363281 0.0625 0.875 -0.0703125 0.5625 -0.34375 C 0.289062 -0.59375 0.15625 -0.925781 0.15625 -1.34375 C 0.15625 -1.757812 0.289062 -2.085938 0.5625 -2.328125 C 0.875 -2.597656 1.363281 -2.734375 2.03125 -2.734375 C 2.6875 -2.734375 3.171875 -2.597656 3.484375 -2.328125 C 3.765625 -2.085938 3.90625 -1.757812 3.90625 -1.34375 C 3.90625 -0.925781 3.765625 -0.59375 3.484375 -0.34375 C 3.171875 -0.0703125 2.6875 0.0625 2.03125 0.0625 Z M 2.03125 -0.65625 C 2.300781 -0.65625 2.5 -0.734375 2.625 -0.890625 C 2.726562 -1.015625 2.78125 -1.164062 2.78125 -1.34375 C 2.78125 -1.507812 2.726562 -1.65625 2.625 -1.78125 C 2.5 -1.9375 2.300781 -2.015625 2.03125 -2.015625 C 1.757812 -2.015625 1.554688 -1.9375 1.421875 -1.78125 C 1.328125 -1.65625 1.28125 -1.507812 1.28125 -1.34375 C 1.28125 -1.164062 1.328125 -1.015625 1.421875 -0.890625 C 1.554688 -0.734375 1.757812 -0.65625 2.03125 -0.65625 Z M 2.03125 -0.65625 "/></g></g></g><g fill="#ed6024" fill-opacity="1"><g transform="translate(56.719755, 17.711155)"><g><path d="M 3.953125 0 L 2.890625 0 C 2.847656 -0.0625 2.816406 -0.148438 2.796875 -0.265625 C 2.773438 -0.335938 2.742188 -0.410156 2.703125 -0.484375 C 2.671875 -0.566406 2.613281 -0.632812 2.53125 -0.6875 C 2.445312 -0.738281 2.320312 -0.769531 2.15625 -0.78125 L 1.421875 -0.78125 L 1.421875 0 L 0.296875 0 L 0.296875 -2.6875 L 2.125 -2.6875 C 2.5625 -2.6875 2.914062 -2.648438 3.1875 -2.578125 C 3.457031 -2.515625 3.648438 -2.410156 3.765625 -2.265625 C 3.890625 -2.128906 3.953125 -1.953125 3.953125 -1.734375 C 3.953125 -1.535156 3.910156 -1.375 3.828125 -1.25 C 3.742188 -1.125 3.609375 -1.023438 3.421875 -0.953125 C 3.609375 -0.878906 3.726562 -0.789062 3.78125 -0.6875 C 3.832031 -0.582031 3.863281 -0.46875 3.875 -0.34375 C 3.882812 -0.226562 3.910156 -0.113281 3.953125 0 Z M 1.421875 -1.4375 L 2.0625 -1.4375 C 2.25 -1.4375 2.390625 -1.441406 2.484375 -1.453125 C 2.585938 -1.472656 2.664062 -1.492188 2.71875 -1.515625 C 2.769531 -1.546875 2.800781 -1.578125 2.8125 -1.609375 C 2.820312 -1.648438 2.828125 -1.691406 2.828125 -1.734375 C 2.828125 -1.765625 2.820312 -1.796875 2.8125 -1.828125 C 2.800781 -1.867188 2.769531 -1.898438 2.71875 -1.921875 C 2.664062 -1.953125 2.585938 -1.972656 2.484375 -1.984375 C 2.390625 -2.003906 2.25 -2.015625 2.0625 -2.015625 L 1.421875 -2.015625 Z M 1.421875 -1.4375 "/></g></g></g><g fill="#ed6024" fill-opacity="1"><g transform="translate(60.834288, 17.711155)"><g><path d="M 2.28125 0 L 1.15625 0 L 1.15625 -2.015625 L 0.109375 -2.015625 L 0.109375 -2.6875 L 3.34375 -2.6875 L 3.34375 -2.015625 L 2.28125 -2.015625 Z M 2.28125 0 "/></g></g></g><g fill="#000000" fill-opacity="1"><g transform="translate(32.697374, 22.08262)"><g><path d="M 0.390625 0 L 0.203125 0 L 0.203125 -1.484375 L 1.640625 -1.484375 C 1.734375 -1.484375 1.8125 -1.445312 1.875 -1.375 C 1.945312 -1.3125 1.984375 -1.234375 1.984375 -1.140625 L 1.984375 -0.890625 C 1.984375 -0.796875 1.945312 -0.71875 1.875 -0.65625 C 1.8125 -0.59375 1.734375 -0.5625 1.640625 -0.5625 L 0.390625 -0.5625 Z M 1.640625 -0.734375 C 1.679688 -0.734375 1.71875 -0.75 1.75 -0.78125 C 1.78125 -0.8125 1.796875 -0.847656 1.796875 -0.890625 L 1.796875 -1.140625 C 1.796875 -1.179688 1.78125 -1.21875 1.75 -1.25 C 1.71875 -1.28125 1.679688 -1.296875 1.640625 -1.296875 L 0.390625 -1.296875 L 0.390625 -0.734375 Z M 1.640625 -0.734375 "/></g></g></g><g fill="#000000" fill-opacity="1"><g transform="translate(35.257042, 22.08262)"><g><path d="M 2.125 0 L 1.90625 0 L 1.671875 -0.328125 L 0.484375 -0.328125 L 0.25 0 L 0.03125 0 L 1.03125 -1.484375 L 1.125 -1.484375 Z M 1.546875 -0.515625 L 1.078125 -1.21875 L 0.59375 -0.515625 Z M 1.546875 -0.515625 "/></g></g></g><g fill="#000000" fill-opacity="1"><g transform="translate(37.840451, 22.08262)"><g><path d="M 0.390625 0 L 0.390625 -1.484375 L 0.203125 -1.484375 L 0.203125 0 Z M 0.390625 0 "/></g></g></g><g fill="#000000" fill-opacity="1"><g transform="translate(38.86012, 22.08262)"><g><path d="M 1.984375 0 L 1.859375 0 L 0.390625 -1.1875 L 0.390625 0 L 0.203125 0 L 0.203125 -1.484375 L 0.328125 -1.484375 L 1.796875 -0.28125 L 1.796875 -1.484375 L 1.984375 -1.484375 Z M 1.984375 0 "/></g></g></g><g fill="#000000" fill-opacity="1"><g transform="translate(41.471397, 22.08262)"><g><path d="M 1.890625 0 L 0.203125 0 L 0.203125 -1.484375 L 1.890625 -1.484375 L 1.890625 -1.296875 L 0.390625 -1.296875 L 0.390625 -0.828125 L 1.71875 -0.828125 L 1.71875 -0.640625 L 0.390625 -0.640625 L 0.390625 -0.1875 L 1.890625 -0.1875 Z M 1.890625 0 "/></g></g></g><g fill="#000000" fill-opacity="1"><g transform="translate(43.939203, 22.08262)"><g><path d="M 1.578125 0 L 1.578125 -0.1875 L 0.390625 -0.1875 L 0.390625 -1.484375 L 0.203125 -1.484375 L 0.203125 0 Z M 1.578125 0 "/></g></g></g><g fill="#000000" fill-opacity="1"><g transform="translate(46.022008, 22.08262)"><g/></g></g><g fill="#000000" fill-opacity="1"><g transform="translate(46.969425, 22.08262)"><g><path d="M 2.125 0 L 1.90625 0 L 1.671875 -0.328125 L 0.484375 -0.328125 L 0.25 0 L 0.03125 0 L 1.03125 -1.484375 L 1.125 -1.484375 Z M 1.546875 -0.515625 L 1.078125 -1.21875 L 0.59375 -0.515625 Z M 1.546875 -0.515625 "/></g></g></g><g fill="#000000" fill-opacity="1"><g transform="translate(49.552834, 22.08262)"><g><path d="M 1.515625 0 C 1.640625 0 1.75 -0.0390625 1.84375 -0.125 C 1.9375 -0.21875 1.984375 -0.328125 1.984375 -0.453125 L 1.984375 -1.015625 C 1.984375 -1.140625 1.9375 -1.25 1.84375 -1.34375 C 1.75 -1.4375 1.640625 -1.484375 1.515625 -1.484375 L 0.203125 -1.484375 L 0.203125 0 Z M 1.515625 -0.1875 L 0.390625 -0.1875 L 0.390625 -1.296875 L 1.515625 -1.296875 C 1.597656 -1.296875 1.664062 -1.269531 1.71875 -1.21875 C 1.769531 -1.164062 1.796875 -1.097656 1.796875 -1.015625 L 1.796875 -0.453125 C 1.796875 -0.378906 1.769531 -0.316406 1.71875 -0.265625 C 1.664062 -0.210938 1.597656 -0.1875 1.515625 -0.1875 Z M 1.515625 -0.1875 "/></g></g></g><g fill="#000000" fill-opacity="1"><g transform="translate(52.112503, 22.08262)"><g><path d="M 2.265625 0 L 2.078125 0 L 2.078125 -1.109375 L 1.28125 0 L 1.1875 0 L 0.390625 -1.109375 L 0.390625 0 L 0.203125 0 L 0.203125 -1.484375 L 0.34375 -1.484375 L 1.234375 -0.25 L 2.125 -1.484375 L 2.265625 -1.484375 Z M 2.265625 0 "/></g></g></g><g fill="#000000" fill-opacity="1"><g transform="translate(55.00866, 22.08262)"><g><path d="M 0.390625 0 L 0.390625 -1.484375 L 0.203125 -1.484375 L 0.203125 0 Z M 0.390625 0 "/></g></g></g><g fill="#000000" fill-opacity="1"><g transform="translate(56.02833, 22.08262)"><g><path d="M 1.984375 0 L 1.859375 0 L 0.390625 -1.1875 L 0.390625 0 L 0.203125 0 L 0.203125 -1.484375 L 0.328125 -1.484375 L 1.796875 -0.28125 L 1.796875 -1.484375 L 1.984375 -1.484375 Z M 1.984375 0 "/></g></g></g></svg>